<svg xmlns="http://www.w3.org/2000/svg" viewBox="0 0 323.75 77.25"><g id="Layer_2" data-name="Layer 2"><g id="Layer_1-2" data-name="Layer 1"><path d="M172,6.46l0,26.89h-3l0-20.45-9.86,17h-1.58L147.69,13V33.35h-3V6.46h2.5l11.17,19.3,11.17-19.3ZM215.43,19.9c0,7.77-6,13.63-14,13.63s-14-5.86-14-13.63,6-13.63,14-13.63S215.43,12.13,215.43,19.9Zm-14-10.74A10.6,10.6,0,0,0,190.54,19.9a10.91,10.91,0,0,0,21.82,0A10.58,10.58,0,0,0,201.47,9.16ZM250,27.7,233.36,6.46h-2.45V33.35h3V12.1l16.67,21.25H253V6.46h-3ZM267.52,9.31h8.88v24h3v-24h8.88V6.46H267.52Zm56.23,24h-3.3l-3.3-7.24H303l-3.27,7.24h-3.3L308.77,6.46h2.61ZM310.06,10.5l-5.83,12.87h11.69Z" style="fill:#1d1d1b"/><path d="M145.88,56a6.58,6.58,0,0,0,6.79,6.66,6.31,6.31,0,0,0,4.65-1.82l.26-.25,1.22,1.26-.24.25a8,8,0,0,1-5.93,2.35,8.45,8.45,0,1,1,0-16.9,8,8,0,0,1,5.93,2.32l.24.25-1.22,1.26-.26-.25a6.26,6.26,0,0,0-4.65-1.79A6.58,6.58,0,0,0,145.88,56Z" style="fill:#1d1d1b"/><path d="M180.65,47.63H179L171.36,64.3h2l2-4.49h8.79l2.05,4.49h2Zm-4.44,10.48,3.62-8,3.63,8Z" style="fill:#1d1d1b"/><path d="M209.59,47.63h-6.08V64.3h1.88V59.08h4.2c4.19,0,6.79-2.19,6.79-5.71S213.84,47.63,209.59,47.63Zm0,9.69h-4.2V49.4h4.2c4,0,4.88,2.16,4.88,4S213.63,57.32,209.59,57.32Z" style="fill:#1d1d1b"/><rect x="232.32" y="47.63" width="1.88" height="16.67" style="fill:#1d1d1b"/><polygon points="249.39 49.4 254.89 49.4 254.89 64.3 256.77 64.3 256.77 49.4 262.27 49.4 262.27 47.63 249.39 47.63 249.39 49.4" style="fill:#1d1d1b"/><path d="M287.65,47.63H286L278.35,64.3h2l2-4.49h8.79l2,4.49h2.05Zm-4.44,10.48,3.61-8,3.64,8Z" style="fill:#1d1d1b"/><polygon points="316.08 62.53 316.08 47.63 314.2 47.63 314.2 64.3 323.59 64.3 323.59 62.53 316.08 62.53" style="fill:#1d1d1b"/><path d="M100.22.09l-39,26a.54.54,0,0,1-.6,0l-39-26a.54.54,0,0,0-.82.31L0,76.55a.54.54,0,0,0,.82.58l13.3-9a.55.55,0,0,0,.22-.3L27.71,19.65a.54.54,0,0,1,.81-.31L60.64,40.79a.55.55,0,0,0,.6,0L94,18.93l9.94-6.63a.55.55,0,0,0,.22-.59L101,.4A.53.53,0,0,0,100.22.09Z" style="fill:#1d1d1b"/><path d="M105.65,19.88,61.23,49.32a.51.51,0,0,1-.58,0L32.59,30.77a.53.53,0,0,0-.79.3L28.7,42.26a.54.54,0,0,0,.21.58L60.65,64a.51.51,0,0,0,.58,0L98.8,38.94a.52.52,0,0,1,.79.29l7.93,28.62a.51.51,0,0,0,.21.29l13.34,9a.52.52,0,0,0,.79-.57l-15.42-56.4A.52.52,0,0,0,105.65,19.88Z" style="fill:#1d1d1b"/></g></g></svg>